<?xml version="1.0" encoding="UTF-8"?>
<svg width="66px" height="66px" viewBox="0 0 66 66" version="1.1" xmlns="http://www.w3.org/2000/svg" xmlns:xlink="http://www.w3.org/1999/xlink">
    <title>Group</title>
    <g id="Page-1" stroke="none" stroke-width="1" fill="none" fill-rule="evenodd">
        <g id="Group" transform="translate(1.502117, 1.479249)" stroke="#FF6F61" stroke-width="3">
            <path d="M12.4024495,29.5146343 L26.5410097,20.8101038 C26.6837361,20.722233 26.8020869,20.5998973 26.8851849,20.4543403 L37.7330112,1.45295284 C38.0068288,0.973325508 38.6176165,0.80648374 39.0972439,1.08030132 C39.2407821,1.16224681 39.3617707,1.27849299 39.4493873,1.41864161 L51.9137028,21.3561641 L61.8912424,37.315919 C62.1840095,37.78422 62.0417112,38.4011877 61.5734102,38.6939548 C61.4351584,38.7803855 61.2778698,38.8317007 61.1152468,38.8434299 L37.4101993,40.5531633 C37.2549435,40.5643612 37.1044455,40.6116483 36.9706858,40.6912605 L23.4807737,48.7202909 C23.0061888,49.002758 22.3924769,48.8470158 22.1100099,48.3724309 C22.1073221,48.367915 22.1046699,48.3633781 22.1020537,48.3588204 L12.0594482,30.8640298 C11.7904567,30.3954313 11.9423415,29.7979039 12.4024495,29.5146343 Z" id="Path"></path>
            <path d="M28.9961423,53.9095622 L32.0612366,51.7608183 C32.3767736,51.5396153 32.7913367,51.5193979 33.1269004,51.708848 L44.4719755,58.1139692 C44.9529068,58.38549 45.1226676,58.9954729 44.8511468,59.4764042 C44.8316299,59.5109735 44.8100718,59.54435 44.786587,59.5763565 L42.928196,62.1090739 C42.6327387,62.5117392 42.0854914,62.6346759 41.6461998,62.3970687 L29.0944214,55.6079741 C28.6086433,55.345223 28.4278443,54.7384203 28.6905953,54.2526422 C28.7644388,54.1161194 28.8690481,53.9986599 28.9961423,53.9095622 Z" id="Path-2"></path>
            <path d="M5.63200064,35.129534 L16.756462,52.4189546 C9.34015441,55.5669262 4.22400048,54.5535892 1.40800016,49.3789436 C-1.40800016,44.204298 6.08698312e-16,39.4544948 5.63200064,35.129534 Z" id="Path-3"></path>
        </g>
    </g>
</svg>
