<!-- Generated by IcoMoon.io -->
<svg version="1.1" xmlns="http://www.w3.org/2000/svg" width="32" height="32" viewBox="0 0 32 32">
    <title>icon_album_second</title>
    <path d="M26.012 7.296h-0.212v-1.969h0.212c2.84 0 4.962 2.537 4.962 5.43v14.816c0 2.893-2.121 5.43-4.962 5.43h-13.257c-2.84 0-4.962-2.537-4.962-5.43h1.969c0 2.017 1.44 3.46 2.992 3.46h13.257c1.552 0 2.992-1.443 2.992-3.46v-14.816c0-2.017-1.44-3.46-2.992-3.46z"></path>
    <path d="M0.308 5.697c0-2.961 2.4-5.361 5.361-5.361h14.953c2.961 0 5.361 2.4 5.361 5.361v14.953c0 2.961-2.4 5.361-5.361 5.361h-14.953c-2.961 0-5.361-2.4-5.361-5.361v-14.953zM5.669 2.305c-1.873 0-3.392 1.519-3.392 3.392v14.953c0 1.873 1.519 3.392 3.392 3.392h14.953c1.873 0 3.392-1.518 3.392-3.392v-14.953c0-1.873-1.519-3.392-3.392-3.392h-14.953z"></path>
</svg>
