<!-- Generated by IcoMoon.io -->
<svg version="1.1" xmlns="http://www.w3.org/2000/svg" width="32" height="32" viewBox="0 0 32 32">
    <title>icon_inspiration</title>
    <path stroke-linejoin="miter" stroke-linecap="butt" stroke-miterlimit="4" stroke-width="0.4444" stroke="#000" fill="#000" d="M25.2 13.444c0-5.073-4.127-9.2-9.2-9.2s-9.2 4.127-9.2 9.2c0 1.652 0.417 3.278 1.212 4.726s1.943 2.673 3.337 3.56l1.074 0.683v6.364c0 0.111 0.036 0.218 0.103 0.306l-0 0 1.533 2.045c0.097 0.129 0.248 0.204 0.409 0.204h3.067c0.161 0 0.312-0.076 0.409-0.204l1.533-2.045c0.067-0.088 0.103-0.196 0.103-0.306v-6.364l1.074-0.683c1.394-0.887 2.542-2.111 3.337-3.56s1.212-3.074 1.212-4.726v0zM18.555 24.178v0.654l-5.111 1.704v-2.358h5.111zM13.444 27.612l5.111-1.704v2.358h-5.111v-0.654zM17.278 30.311h-2.556l-0.767-1.022h4.089l-0.767 1.022zM20.102 20.868l-1.31 0.834c-0.147 0.094-0.237 0.257-0.237 0.431v1.022h-1.022v-4.451l3.498-5.497c0.128-0.202 0.099-0.467-0.070-0.636l-1.533-1.533c-0.2-0.2-0.523-0.2-0.723 0l-1.172 1.172-1.172-1.172c-0.2-0.2-0.523-0.2-0.723 0l-1.172 1.172-1.172-1.172-0.723 0.723 1.533 1.533c0.2 0.2 0.523 0.2 0.723 0l1.172-1.172 1.172 1.172c0.2 0.2 0.523 0.2 0.723 0l1.172-1.172 0.882 0.882-3.358 5.276c-0.052 0.082-0.080 0.177-0.080 0.274v4.6h-3.067v-1.022c0-0.175-0.089-0.338-0.237-0.431l-1.31-0.834c-2.544-1.61-4.083-4.413-4.075-7.424 0-2.921 1.559-5.621 4.089-7.082s5.648-1.461 8.178 0c2.53 1.461 4.089 4.16 4.089 7.082 0.008 3.011-1.531 5.814-4.076 7.424h0z"></path>
    <path stroke-linejoin="round" stroke-linecap="butt" stroke-miterlimit="4" stroke-width="0.4444" stroke="#000" fill="#000" d="M15.489 0.667h1.022v2.044h-1.022v-2.044z"></path>
    <path stroke-linejoin="round" stroke-linecap="butt" stroke-miterlimit="4" stroke-width="0.4444" stroke="#000" fill="#000" d="M8.913 2.703l0.885-0.511 1.022 1.771-0.885 0.511-1.022-1.771z"></path>
    <path stroke-linejoin="round" stroke-linecap="butt" stroke-miterlimit="4" stroke-width="0.4444" stroke="#000" fill="#000" d="M4.236 7.754l0.511-0.885 1.771 1.022-0.511 0.885-1.771-1.022z"></path>
    <path stroke-linejoin="round" stroke-linecap="butt" stroke-miterlimit="4" stroke-width="0.4444" stroke="#000" fill="#000" d="M2.711 13.444h2.044v1.022h-2.044v-1.022z"></path>
    <path stroke-linejoin="round" stroke-linecap="butt" stroke-miterlimit="4" stroke-width="0.4444" stroke="#000" fill="#000" d="M4.236 20.157l1.771-1.022 0.511 0.885-1.771 1.022-0.511-0.885z"></path>
    <path stroke-linejoin="round" stroke-linecap="butt" stroke-miterlimit="4" stroke-width="0.4444" stroke="#000" fill="#000" d="M8.913 25.208l1.022-1.771 0.885 0.511-1.022 1.771-0.885-0.511z"></path>
    <path stroke-linejoin="round" stroke-linecap="butt" stroke-miterlimit="4" stroke-width="0.4444" stroke="#000" fill="#000" d="M21.179 23.949l0.885-0.511 1.022 1.771-0.885 0.511-1.022-1.771z"></path>
    <path stroke-linejoin="round" stroke-linecap="butt" stroke-miterlimit="4" stroke-width="0.4444" stroke="#000" fill="#000" d="M25.483 20.021l0.511-0.885 1.771 1.022-0.511 0.885-1.771-1.022z"></path>
    <path stroke-linejoin="round" stroke-linecap="butt" stroke-miterlimit="4" stroke-width="0.4444" stroke="#000" fill="#000" d="M27.244 13.444h2.045v1.022h-2.045v-1.022z"></path>
    <path stroke-linejoin="round" stroke-linecap="butt" stroke-miterlimit="4" stroke-width="0.4444" stroke="#000" fill="#000" d="M25.483 7.89l1.771-1.022 0.511 0.885-1.771 1.022-0.511-0.885z"></path>
    <path stroke-linejoin="round" stroke-linecap="butt" stroke-miterlimit="4" stroke-width="0.4444" stroke="#000" fill="#000" d="M21.179 3.962l1.022-1.771 0.885 0.511-1.022 1.771-0.885-0.511z"></path>
</svg>
