<!-- Generated by IcoMoon.io -->
<svg version="1.1" xmlns="http://www.w3.org/2000/svg" width="32" height="32" viewBox="0 0 32 32">
    <title>icon_discover</title>
    <path stroke-linejoin="miter" stroke-linecap="butt" stroke-miterlimit="4" stroke-width="0.4444" stroke="#000" fill="#000" d="M23.473 20.263c-0.174-0.179-0.408-0.287-0.657-0.303s-0.495 0.061-0.69 0.216l-0.668-0.64c1.756-2.52 2.148-5.746 1.045-8.613s-3.555-5-6.547-5.694c-2.992-0.694-6.133 0.142-8.385 2.231s-3.32 5.159-2.852 8.194 2.411 5.641 5.187 6.955c2.776 1.314 6.023 1.165 8.667-0.397l0.68 0.651-0.107 0.101-0-0c-0.194 0.182-0.307 0.434-0.313 0.7s0.094 0.523 0.278 0.714l5.984 6.209c0.092 0.096 0.218 0.151 0.351 0.154s0.261-0.048 0.357-0.14c0.096-0.092 0.151-0.218 0.153-0.351s-0.048-0.261-0.141-0.356l-5.985-6.2 2.922-2.735 8.387 8.64c0.192 0.198 0.509 0.203 0.707 0.010 0.095-0.092 0.15-0.219 0.152-0.351s-0.049-0.26-0.141-0.356l-8.386-8.639zM13.875 22.5c-2.188 0-4.286-0.869-5.834-2.416s-2.416-3.646-2.416-5.834 0.869-4.286 2.416-5.834c1.547-1.547 3.646-2.416 5.834-2.416s4.286 0.869 5.834 2.416c1.547 1.547 2.416 3.646 2.416 5.834-0.002 2.187-0.873 4.284-2.419 5.831s-3.644 2.417-5.831 2.419v0zM19.984 22.178l-0.557-0.534c0.515-0.389 0.988-0.829 1.412-1.316l0.552 0.528-1.407 1.321z"></path>
    <path stroke-linejoin="miter" stroke-linecap="butt" stroke-miterlimit="4" stroke-width="0.4444" stroke="#000" fill="#000" d="M23.271 24.396c-0.094 0.094-0.146 0.221-0.146 0.354s0.053 0.26 0.146 0.353l1.5 1.5c0.197 0.19 0.51 0.19 0.707 0 0.094-0.094 0.146-0.221 0.146-0.354s-0.053-0.26-0.146-0.354l-1.5-1.5c-0.094-0.094-0.221-0.146-0.354-0.146s-0.26 0.053-0.354 0.146z"></path>
    <path d="M24.75 11.749c0 0.464 0.184 0.909 0.512 1.237s0.773 0.512 1.237 0.512c0.464 0 0.909-0.184 1.238-0.512s0.512-0.773 0.512-1.237c0-0.464-0.184-0.909-0.512-1.238s-0.773-0.512-1.238-0.512c-0.464 0-0.909 0.185-1.237 0.513s-0.513 0.773-0.513 1.237h0zM27.25 11.749c0 0.303-0.183 0.577-0.463 0.693s-0.603 0.052-0.817-0.162c-0.215-0.215-0.279-0.537-0.162-0.818s0.389-0.463 0.693-0.463c0.414 0 0.75 0.336 0.75 0.75v0z"></path>
    <path d="M8.75 3c0.398 0 0.779-0.158 1.061-0.439s0.439-0.663 0.439-1.061-0.158-0.779-0.439-1.061c-0.281-0.281-0.663-0.439-1.061-0.439s-0.779 0.158-1.061 0.439-0.439 0.663-0.439 1.061c0 0.398 0.159 0.779 0.44 1.060s0.663 0.439 1.060 0.44v-0zM8.75 1c0.202 0 0.385 0.122 0.462 0.309s0.035 0.402-0.108 0.545c-0.143 0.143-0.358 0.186-0.545 0.108s-0.309-0.26-0.309-0.462c0-0.276 0.224-0.5 0.5-0.5z"></path>
    <path d="M25 5.5c0.398 0 0.779-0.158 1.061-0.439s0.439-0.663 0.439-1.061-0.158-0.779-0.439-1.061c-0.281-0.281-0.663-0.439-1.061-0.439s-0.78 0.158-1.061 0.439c-0.281 0.281-0.439 0.663-0.439 1.061s0.159 0.779 0.44 1.060c0.281 0.281 0.663 0.439 1.060 0.44v-0zM25 3.5c0.202 0 0.384 0.122 0.462 0.309s0.035 0.402-0.108 0.545c-0.143 0.143-0.358 0.186-0.545 0.108s-0.309-0.26-0.309-0.462c0-0.276 0.224-0.5 0.5-0.5z"></path>
    <path d="M1.5 14c0.398 0 0.779-0.158 1.061-0.439s0.439-0.663 0.439-1.061c0-0.398-0.158-0.779-0.439-1.061s-0.663-0.439-1.061-0.439c-0.398 0-0.779 0.158-1.061 0.439s-0.439 0.663-0.439 1.061c0 0.398 0.159 0.779 0.44 1.060s0.662 0.439 1.060 0.44l-0-0zM1.5 12c0.202 0 0.385 0.122 0.462 0.309s0.035 0.402-0.108 0.545c-0.143 0.143-0.358 0.186-0.545 0.108s-0.309-0.26-0.309-0.462c0-0.276 0.224-0.5 0.5-0.5z"></path>
    <path d="M1.75 28.5c-0.464 0-0.909 0.184-1.237 0.512s-0.512 0.773-0.512 1.237c0 0.464 0.184 0.909 0.512 1.238s0.773 0.512 1.237 0.512 0.909-0.184 1.237-0.512c0.328-0.328 0.513-0.773 0.513-1.238s-0.185-0.909-0.513-1.237-0.773-0.512-1.237-0.513h0zM1.75 30.999c-0.303 0-0.577-0.183-0.693-0.463s-0.052-0.603 0.163-0.817 0.537-0.279 0.817-0.162c0.28 0.116 0.463 0.39 0.463 0.693-0 0.414-0.336 0.75-0.75 0.75h-0z"></path>
    <path d="M11.75 28.999c-0.398 0-0.779 0.158-1.061 0.439s-0.439 0.663-0.439 1.061c0 0.398 0.158 0.779 0.439 1.061s0.663 0.439 1.061 0.439c0.398 0 0.78-0.158 1.061-0.439s0.439-0.663 0.439-1.061c-0-0.398-0.159-0.779-0.44-1.060s-0.663-0.439-1.060-0.44v0zM11.75 30.999c-0.202 0-0.384-0.122-0.462-0.309s-0.035-0.402 0.108-0.545c0.143-0.143 0.358-0.186 0.545-0.108s0.309 0.26 0.309 0.462c-0 0.276-0.224 0.5-0.5 0.5z"></path>
    <path d="M17 2h0.5v0.5c0 0.276 0.224 0.5 0.5 0.5s0.5-0.224 0.5-0.5v-0.5h0.5c0.276 0 0.5-0.224 0.5-0.5s-0.224-0.5-0.5-0.5h-0.5v-0.5c0-0.276-0.224-0.5-0.5-0.5s-0.5 0.224-0.5 0.5v0.5h-0.5c-0.276 0-0.5 0.224-0.5 0.5s0.224 0.5 0.5 0.5z"></path>
    <path d="M31.5 16.5h-0.5v-0.5c0-0.276-0.224-0.5-0.5-0.5s-0.5 0.224-0.5 0.5v0.5h-0.5c-0.276 0-0.5 0.224-0.5 0.5s0.224 0.5 0.5 0.5h0.5v0.5c0 0.276 0.224 0.5 0.5 0.5s0.5-0.224 0.5-0.5v-0.5h0.5c0.276 0 0.5-0.224 0.5-0.5s-0.224-0.5-0.5-0.5z"></path>
    <path d="M8 25.5h-0.5v-0.5c0-0.276-0.224-0.5-0.5-0.5s-0.5 0.224-0.5 0.5v0.5h-0.5c-0.276 0-0.5 0.224-0.5 0.5s0.224 0.5 0.5 0.5h0.5v0.5c0 0.276 0.224 0.5 0.5 0.5s0.5-0.224 0.5-0.5v-0.5h0.5c0.276 0 0.5-0.224 0.5-0.5s-0.224-0.5-0.5-0.5z"></path>
    <path d="M0.5 4.5h0.25v0.25c0 0.276 0.224 0.5 0.5 0.5s0.5-0.224 0.5-0.5v-0.25h0.25c0.276 0 0.5-0.224 0.5-0.5s-0.224-0.5-0.5-0.5h-0.25v-0.25c0-0.276-0.224-0.5-0.5-0.5s-0.5 0.224-0.5 0.5v0.25h-0.25c-0.276 0-0.5 0.224-0.5 0.5s0.224 0.5 0.5 0.5z"></path>
    <path d="M17.25 27h-0.25v-0.25c0-0.276-0.224-0.5-0.5-0.5s-0.5 0.224-0.5 0.5v0.25h-0.25c-0.276 0-0.5 0.224-0.5 0.5s0.224 0.5 0.5 0.5h0.25v0.25c0 0.276 0.224 0.5 0.5 0.5s0.5-0.224 0.5-0.5v-0.25h0.25c0.276 0 0.5-0.224 0.5-0.5s-0.224-0.5-0.5-0.5z"></path>
    <path d="M0.5 21.5h0.25v0.25c0 0.276 0.224 0.5 0.5 0.5s0.5-0.224 0.5-0.5v-0.25h0.25c0.276 0 0.5-0.224 0.5-0.5s-0.224-0.5-0.5-0.5h-0.25v-0.25c0-0.276-0.224-0.5-0.5-0.5s-0.5 0.224-0.5 0.5v0.25h-0.25c-0.276 0-0.5 0.224-0.5 0.5s0.224 0.5 0.5 0.5z"></path>
    <path d="M30 6.5h0.25v0.25c0 0.276 0.224 0.5 0.5 0.5s0.5-0.224 0.5-0.5v-0.25h0.25c0.276 0 0.5-0.224 0.5-0.5s-0.224-0.5-0.5-0.5h-0.25v-0.25c0-0.276-0.224-0.5-0.5-0.5s-0.5 0.224-0.5 0.5v0.25h-0.25c-0.276 0-0.5 0.224-0.5 0.5s0.224 0.5 0.5 0.5z"></path>
    <path stroke-linejoin="miter" stroke-linecap="butt" stroke-miterlimit="4" stroke-width="0.4444" stroke="#000" fill="#000" d="M13.875 12.749c0.276 0 0.5-0.224 0.5-0.5v-1c0-0.276-0.224-0.5-0.5-0.5s-0.5 0.224-0.5 0.5v1c0 0.276 0.224 0.5 0.5 0.5z"></path>
    <path stroke-linejoin="miter" stroke-linecap="butt" stroke-miterlimit="4" stroke-width="0.4444" stroke="#000" fill="#000" d="M13.875 17.749c0.276 0 0.5-0.224 0.5-0.5v-1c0-0.276-0.224-0.5-0.5-0.5s-0.5 0.224-0.5 0.5v1c0 0.276 0.224 0.5 0.5 0.5z"></path>
    <path stroke-linejoin="miter" stroke-linecap="butt" stroke-miterlimit="4" stroke-width="0.4444" stroke="#000" fill="#000" d="M17.375 14.25c0-0.276-0.224-0.5-0.5-0.5h-1c-0.276 0-0.5 0.224-0.5 0.5s0.224 0.5 0.5 0.5h1c0.276 0 0.5-0.224 0.5-0.5z"></path>
    <path stroke-linejoin="miter" stroke-linecap="butt" stroke-miterlimit="4" stroke-width="0.4444" stroke="#000" fill="#000" d="M11.875 13.749h-1c-0.276 0-0.5 0.224-0.5 0.5s0.224 0.5 0.5 0.5h1c0.276 0 0.5-0.224 0.5-0.5s-0.224-0.5-0.5-0.5z"></path>
    <path stroke-linejoin="miter" stroke-linecap="butt" stroke-miterlimit="4" stroke-width="0.4444" stroke="#000" fill="#000" d="M14.375 7.749c0 0.276-0.224 0.5-0.5 0.5s-0.5-0.224-0.5-0.5c0-0.276 0.224-0.5 0.5-0.5s0.5 0.224 0.5 0.5z"></path>
    <path stroke-linejoin="miter" stroke-linecap="butt" stroke-miterlimit="4" stroke-width="0.4444" stroke="#000" fill="#000" d="M16.365 8.060c0 0.276-0.224 0.5-0.5 0.5s-0.5-0.224-0.5-0.5c0-0.276 0.224-0.5 0.5-0.5s0.5 0.224 0.5 0.5z"></path>
    <path stroke-linejoin="miter" stroke-linecap="butt" stroke-miterlimit="4" stroke-width="0.4444" stroke="#000" fill="#000" d="M18.178 8.978c0 0.276-0.224 0.5-0.5 0.5s-0.5-0.224-0.5-0.5c0-0.276 0.224-0.5 0.5-0.5s0.5 0.224 0.5 0.5z"></path>
    <path stroke-linejoin="miter" stroke-linecap="butt" stroke-miterlimit="4" stroke-width="0.4444" stroke="#000" fill="#000" d="M19.62 10.41c0 0.276-0.224 0.5-0.5 0.5s-0.5-0.224-0.5-0.5c0-0.276 0.224-0.5 0.5-0.5s0.5 0.224 0.5 0.5z"></path>
    <path stroke-linejoin="miter" stroke-linecap="butt" stroke-miterlimit="4" stroke-width="0.4444" stroke="#000" fill="#000" d="M20.559 12.218c0 0.276-0.224 0.5-0.5 0.5s-0.5-0.224-0.5-0.5c0-0.276 0.224-0.5 0.5-0.5s0.5 0.224 0.5 0.5z"></path>
    <path d="M20.875 14.237c0 0.276-0.224 0.5-0.5 0.5s-0.5-0.224-0.5-0.5c0-0.276 0.224-0.5 0.5-0.5s0.5 0.224 0.5 0.5z"></path>
    <path fill="none" stroke-linejoin="miter" stroke-linecap="butt" stroke-miterlimit="4" stroke-width="0.4444" stroke="#000" d="M20.875 14.237c0 0.276-0.224 0.5-0.5 0.5s-0.5-0.224-0.5-0.5c0-0.276 0.224-0.5 0.5-0.5s0.5 0.224 0.5 0.5"></path>
    <path stroke-linejoin="miter" stroke-linecap="butt" stroke-miterlimit="4" stroke-width="0.4444" stroke="#000" fill="#000" d="M20.559 16.257c0 0.276-0.224 0.5-0.5 0.5s-0.5-0.224-0.5-0.5c0-0.276 0.224-0.5 0.5-0.5s0.5 0.224 0.5 0.5z"></path>
    <path stroke-linejoin="miter" stroke-linecap="butt" stroke-miterlimit="4" stroke-width="0.4444" stroke="#000" fill="#000" d="M19.635 18.079c0 0.276-0.224 0.5-0.5 0.5s-0.5-0.224-0.5-0.5c0-0.276 0.224-0.5 0.5-0.5s0.5 0.224 0.5 0.5z"></path>
    <path stroke-linejoin="miter" stroke-linecap="butt" stroke-miterlimit="4" stroke-width="0.4444" stroke="#000" fill="#000" d="M18.198 19.514c0 0.276-0.224 0.5-0.5 0.5s-0.5-0.224-0.5-0.5c0-0.276 0.224-0.5 0.5-0.5s0.5 0.224 0.5 0.5z"></path>
    <path stroke-linejoin="miter" stroke-linecap="butt" stroke-miterlimit="4" stroke-width="0.4444" stroke="#000" fill="#000" d="M16.389 20.435c0 0.276-0.224 0.5-0.5 0.5s-0.5-0.224-0.5-0.5c0-0.276 0.224-0.5 0.5-0.5s0.5 0.224 0.5 0.5z"></path>
    <path stroke-linejoin="miter" stroke-linecap="butt" stroke-miterlimit="4" stroke-width="0.4444" stroke="#000" fill="#000" d="M14.38 20.749c0 0.276-0.224 0.5-0.5 0.5s-0.5-0.224-0.5-0.5c0-0.276 0.224-0.5 0.5-0.5s0.5 0.224 0.5 0.5z"></path>
    <path stroke-linejoin="miter" stroke-linecap="butt" stroke-miterlimit="4" stroke-width="0.4444" stroke="#000" fill="#000" d="M12.373 20.432c0 0.276-0.224 0.5-0.5 0.5s-0.5-0.224-0.5-0.5c0-0.276 0.224-0.5 0.5-0.5s0.5 0.224 0.5 0.5z"></path>
    <path stroke-linejoin="miter" stroke-linecap="butt" stroke-miterlimit="4" stroke-width="0.4444" stroke="#000" fill="#000" d="M10.561 19.514c0 0.276-0.224 0.5-0.5 0.5s-0.5-0.224-0.5-0.5c0-0.276 0.224-0.5 0.5-0.5s0.5 0.224 0.5 0.5z"></path>
    <path stroke-linejoin="miter" stroke-linecap="butt" stroke-miterlimit="4" stroke-width="0.4444" stroke="#000" fill="#000" d="M9.122 18.070c0 0.276-0.224 0.5-0.5 0.5s-0.5-0.224-0.5-0.5c0-0.276 0.224-0.5 0.5-0.5s0.5 0.224 0.5 0.5z"></path>
    <path stroke-linejoin="miter" stroke-linecap="butt" stroke-miterlimit="4" stroke-width="0.4444" stroke="#000" fill="#000" d="M8.195 16.269c0 0.276-0.224 0.5-0.5 0.5s-0.5-0.224-0.5-0.5c0-0.276 0.224-0.5 0.5-0.5s0.5 0.224 0.5 0.5z"></path>
    <path d="M7.875 14.262c0 0.276-0.224 0.5-0.5 0.5s-0.5-0.224-0.5-0.5c0-0.276 0.224-0.5 0.5-0.5s0.5 0.224 0.5 0.5z"></path>
    <path fill="none" stroke-linejoin="miter" stroke-linecap="butt" stroke-miterlimit="4" stroke-width="0.4444" stroke="#000" d="M7.875 14.262c0 0.276-0.224 0.5-0.5 0.5s-0.5-0.224-0.5-0.5c0-0.276 0.224-0.5 0.5-0.5s0.5 0.224 0.5 0.5"></path>
    <path stroke-linejoin="miter" stroke-linecap="butt" stroke-miterlimit="4" stroke-width="0.4444" stroke="#000" fill="#000" d="M8.195 12.254c0 0.276-0.224 0.5-0.5 0.5s-0.5-0.224-0.5-0.5c0-0.276 0.224-0.5 0.5-0.5s0.5 0.224 0.5 0.5z"></path>
    <path stroke-linejoin="miter" stroke-linecap="butt" stroke-miterlimit="4" stroke-width="0.4444" stroke="#000" fill="#000" d="M9.108 10.442c0 0.276-0.224 0.5-0.5 0.5s-0.5-0.224-0.5-0.5c0-0.276 0.224-0.5 0.5-0.5s0.5 0.224 0.5 0.5z"></path>
    <path stroke-linejoin="miter" stroke-linecap="butt" stroke-miterlimit="4" stroke-width="0.4444" stroke="#000" fill="#000" d="M10.541 9.001c0 0.276-0.224 0.5-0.5 0.5s-0.5-0.224-0.5-0.5c0-0.276 0.224-0.5 0.5-0.5s0.5 0.224 0.5 0.5z"></path>
    <path stroke-linejoin="miter" stroke-linecap="butt" stroke-miterlimit="4" stroke-width="0.4444" stroke="#000" fill="#000" d="M12.349 8.073c0 0.276-0.224 0.5-0.5 0.5s-0.5-0.224-0.5-0.5c0-0.276 0.224-0.5 0.5-0.5s0.5 0.224 0.5 0.5z"></path>
</svg>
