<!-- Generated by IcoMoon.io -->
<svg version="1.1" xmlns="http://www.w3.org/2000/svg" width="32" height="32" viewBox="0 0 32 32">
    <title>icon_chef_menu</title>
    <path d="M10.912 25.303c-0.19-0.19-0.207-0.294-0.202-0.306 0.044-0.107 0.38-0.286 0.914-0.36-0.074 0.537-0.258 0.838-0.362 0.882-0.037 0.015-0.165-0.030-0.35-0.215zM12.661 23.599v-8.528c0-1.409 1.147-2.556 2.556-2.556s2.556 1.147 2.556 2.556v2.056c-0.005 0.251-0.025 0.638-0.087 0.946-0.007 0.036-0.011 0.072-0.011 0.107 0 0.25 0.175 0.473 0.43 0.525 0.29 0.059 0.573-0.129 0.632-0.419 0.019-0.091 0.034-0.186 0.047-0.28 0.523-0.337 1.488-0.822 2.012-0.673 0.1 0.028 0.228 0.090 0.323 0.316 0.165 0.391-0.088 0.655-1.045 1.358-0.971 0.715-2.301 1.694-2.301 3.494l0.001 1.098h-5.113zM11.62 26.383c0.577-0.239 0.855-0.971 0.942-1.712h5.211c0.591 0 1.072-0.481 1.072-1.072v-1.098c0-1.258 0.948-1.955 1.864-2.63 0.898-0.661 1.916-1.409 1.397-2.639-0.202-0.478-0.555-0.8-1.021-0.932-0.729-0.206-1.605 0.111-2.24 0.433v-1.663c-0-2.001-1.628-3.628-3.629-3.628s-3.628 1.627-3.628 3.628v8.628c-0.741 0.087-1.507 0.365-1.745 0.94-0.043 0.102-0.074 0.225-0.074 0.366 0 0.266 0.113 0.595 0.479 0.961 0.607 0.607 1.119 0.523 1.371 0.418h0z"></path>
    <path d="M16.7 21.858h-2.967c-0.259 0-0.468 0.21-0.468 0.468s0.21 0.468 0.468 0.468h2.967c0.259 0 0.468-0.21 0.468-0.468s-0.21-0.468-0.468-0.468z"></path>
    <path stroke-linejoin="miter" stroke-linecap="butt" stroke-miterlimit="4" stroke-width="0.4444" stroke="#000" fill="#000" d="M24.759 31.333h-17.509c-0.392 0-0.653-0.261-0.653-0.653v-24.239c0-0.392 0.261-0.653 0.653-0.653h17.51c0.392 0 0.653 0.261 0.653 0.653v24.239c-0 0.392-0.262 0.653-0.654 0.653h-0zM7.903 30.027h16.203l0-22.932h-16.203l0 22.932z"></path>
    <path stroke-linejoin="miter" stroke-linecap="butt" stroke-miterlimit="4" stroke-width="0.4444" stroke="#000" fill="#000" d="M7.25 7.094c-0.327 0-0.588-0.196-0.653-0.523-0.065-0.392 0.196-0.719 0.522-0.784 0.065 0 9.016-1.895 11.826-4.9 0.196-0.196 0.457-0.261 0.719-0.196s0.392 0.327 0.392 0.588v5.161c0 0.392-0.261 0.653-0.653 0.653s-0.653-0.261-0.653-0.653l0-3.724c-3.724 2.744-11.042 4.247-11.368 4.312-0.065 0-0.065 0.065-0.131 0.065v0z"></path>
</svg>
