<svg class="MRTN__sc-gkm9mr-5 jTixEZ" xmlns="http://www.w3.org/2000/svg" xmlns:xlink="http://www.w3.org/1999/xlink"
     viewBox="0 0 48 45">
    <defs>
        <path id="a" d="M0 .048h47.868v44.509H0z"></path>
    </defs>
    <path d="M11.866 13.442c2.144.21 3.915.693 5.57 1.519l.82.444a1.21 1.21 0 0 0 .613.167 1.216 1.216 0 0 0 .615-2.265l-.963-.521c-1.903-.949-4.002-1.526-6.417-1.763a1.216 1.216 0 0 0-.238 2.419m0 7.108c2.145.212 3.915.694 5.57 1.52l.82.444a1.21 1.21 0 0 0 .613.166 1.215 1.215 0 0 0 .615-2.264l-.963-.521c-1.903-.949-4.002-1.526-6.417-1.763a1.217 1.217 0 0 0-.238 2.419m7.618 6.974l-.963-.521c-1.903-.95-4.003-1.526-6.417-1.763a1.216 1.216 0 0 0-.238 2.419c2.144.21 3.914.693 5.57 1.519l.82.443a1.21 1.21 0 0 0 .613.167 1.22 1.22 0 0 0 1.05-.6 1.217 1.217 0 0 0-.435-1.664M29 22.68c.208 0 .419-.053.612-.166l.82-.444c1.655-.826 3.425-1.308 5.57-1.52.668-.065 1.156-.66 1.09-1.327s-.66-1.155-1.328-1.091c-2.415.238-4.514.814-6.416 1.763l-.964.521a1.216 1.216 0 0 0 .615 2.264M29 15.571c.208 0 .419-.053.612-.166l.82-.444c1.656-.825 3.425-1.308 5.57-1.52a1.214 1.214 0 1 0-.238-2.417c-2.415.237-4.514.813-6.417 1.762l-.963.521a1.216 1.216 0 0 0 .615 2.264m6.766 9.67c-2.415.237-4.514.814-6.418 1.763l-.963.521a1.215 1.215 0 0 0 .615 2.264 1.22 1.22 0 0 0 .613-.166l.82-.444c1.656-.826 3.426-1.309 5.57-1.52a1.216 1.216 0 0 0-.237-2.418"></path>
    <path d="M44.627 40.525c-3.06-.378-9.372-.938-15.711-.175 3.813-2.649 7.775-2.632 11.375-2.617l.8.002a1.62 1.62 0 0 0 1.62-1.62V10.208h1.916v30.317zm-41.386 0V10.208h1.916v25.907a1.62 1.62 0 0 0 1.62 1.62l.8-.002c3.601-.016 7.563-.032 11.376 2.617-6.34-.763-12.652-.203-15.712.175zM8.398 3.288h.025c4.46 0 9.4.307 13.89 5.774v29.8c-4.768-4.122-9.857-4.372-13.912-4.372h-.003V3.288zm31.047 0h.025l-.003 31.202c-4.055 0-9.145.25-13.913 4.372v-29.8c4.491-5.467 9.43-5.774 13.891-5.774zm6.803 3.68H42.71V1.673a1.62 1.62 0 0 0-1.62-1.62L40.304.05C35.681.03 29.475.007 23.934 5.996 18.394.007 12.186.03 7.563.05l-.785.003a1.62 1.62 0 0 0-1.62 1.62v5.295H1.62A1.62 1.62 0 0 0 0 8.588v33.8a1.62 1.62 0 0 0 .574 1.237 1.62 1.62 0 0 0 1.314.361c.122-.02 12.298-2.013 21.622.514l.01.002.04.01.038.008c.02.004.042.01.063.013l.016.003.028.003.033.005.032.003c.05.005.101.009.151.01h.022c.01 0 .019-.003.028-.003.053 0 .106-.004.159-.01l.043-.007.064-.011c.031-.006.062-.012.092-.02.01-.003.02-.003.029-.006 9.324-2.527 21.5-.534 21.621-.514a1.62 1.62 0 0 0 1.889-1.598v-33.8a1.62 1.62 0 0 0-1.62-1.62z"></path>
</svg>
