<svg fill="#fff" xmlns="http://www.w3.org/2000/svg" width="32" height="32" viewBox="0 0 32 32"><path d="M2.712 15.557h23.336L18.017 8.32c-.585-.527-.585-1.381 0-1.908s1.533-.527 2.118 0l10.587 9.54c.069.063.131.132.186.205.025.034.043.071.065.106.025.042.053.082.073.126.021.046.033.093.048.14.012.037.029.073.037.112.02.088.03.176.03.265v.003a1.28 1.28 0 0 1-.029.261c-.009.041-.026.078-.039.118-.014.045-.026.09-.046.134-.022.047-.051.089-.078.134-.02.033-.036.067-.059.098a1.363 1.363 0 0 1-.188.207L20.136 27.4c-.585.527-1.533.527-2.117 0s-.585-1.381 0-1.908l8.031-7.236H2.715c-.827 0-1.497-.604-1.497-1.349s.67-1.349 1.497-1.349z"></path></svg>
