<svg fill="#fff" xmlns="http://www.w3.org/2000/svg" width="32" height="32" viewBox="0 0 32 32">
	<path
			d="M22.686 14.569l-9.921-5.773a1.839 1.839 0 0 0-.93-.236c-.918.021-1.712.761-1.736 1.82v11.507c.031 1.411 1.433 2.267 2.667 1.596l9.92-5.772c.54-.316.906-.894.906-1.571s-.365-1.255-.905-1.571z">
	</path>
	<path
			d="M16 30.339c-7.907 0-14.339-6.433-14.339-14.34S8.093 1.66 16 1.66s14.34 6.433 14.34 14.339c0 7.907-6.433 14.34-14.34 14.34zM16 0C7.178 0 0 7.178 0 15.999s7.178 16 16 16 16-7.178 16-16S24.822 0 16 0z">
	</path>
</svg>
