<svg fill="#ff6f61" version="1.1" xmlns="http://www.w3.org/2000/svg" width="32" height="32"
	 viewBox="0 0 32 32">
	<path
			d="M16 30.421c-0 0-0.001 0-0.001 0-0.295 0-0.563-0.117-0.76-0.307l0 0-12.455-12.034c-0.018-0.015-0.034-0.031-0.049-0.049l-0.001-0.001c-1.642-1.821-2.668-4.225-2.735-6.868l-0-0.014c0-5.279 4.048-9.572 9.025-9.572 2.971 0.027 5.577 1.563 7.091 3.878l0.020 0.033c1.534-2.348 4.14-3.884 7.107-3.911l0.004-0c4.923 0 8.752 4.206 8.752 9.572 0 0.031 0.001 0.068 0.001 0.105 0 2.587-0.931 4.957-2.475 6.793l0.013-0.016-0.071 0.077-12.734 12.034c-0.193 0.173-0.449 0.279-0.73 0.279-0.001 0-0.002 0-0.003 0h0zM4.338 16.56l11.673 11.274 11.93-11.279c1.166-1.442 1.871-3.298 1.871-5.319 0-0.030-0-0.060-0-0.090l0 0.005c0-4.141-2.883-7.385-6.564-7.385-2.669 0-5.060 1.761-6.088 4.491-0.161 0.416-0.558 0.706-1.023 0.706s-0.862-0.29-1.020-0.699l-0.003-0.007c-1.028-2.73-3.419-4.491-6.088-4.491-3.769 0-6.838 3.315-6.838 7.385 0.071 2.085 0.874 3.97 2.158 5.419l-0.008-0.009zM28.728 17.315v0z"></path>
</svg>
