<!-- Generated by IcoMoon.io -->
<svg version="1.1" xmlns="http://www.w3.org/2000/svg" width="32" height="32" viewBox="0 0 32 32">
    <title>icon_new</title>
    <path stroke-linejoin="miter" stroke-linecap="butt" stroke-miterlimit="4" stroke-width="0.4444" stroke="#000" fill="#000" d="M20.329 2.653l1.524 3.218c0.372 0.785 1.108 1.32 1.97 1.432l3.524 0.444-0.655 3.501c-0.16 0.852 0.121 1.717 0.751 2.313l2.588 2.432-2.588 2.448c-0.63 0.596-0.911 1.46-0.751 2.313l0.664 3.489-3.533 0.457c-0.862 0.111-1.598 0.647-1.97 1.432l-1.509 3.213-3.125-1.708c-0.373-0.204-0.794-0.312-1.218-0.312s-0.846 0.107-1.218 0.311l-3.111 1.713-1.524-3.218c-0.372-0.785-1.108-1.32-1.97-1.432l-3.524-0.444 0.655-3.501c0.16-0.852-0.121-1.717-0.751-2.313l-2.588-2.432 2.588-2.448c0.63-0.596 0.911-1.46 0.751-2.313l-0.664-3.489 3.533-0.457c0.862-0.111 1.598-0.647 1.97-1.432l1.519-3.208 3.115 1.703c0.373 0.204 0.794 0.311 1.218 0.311s0.846-0.108 1.218-0.311l3.111-1.713zM11.663 1.383c-0.472 0-0.927 0.265-1.144 0.724l-1.524 3.218c-0.184 0.389-0.554 0.658-0.981 0.713l-3.533 0.457c-0.72 0.093-1.214 0.773-1.081 1.487l0.655 3.501c0.079 0.422-0.062 0.856-0.374 1.151l-2.588 2.448c-0.528 0.499-0.528 1.338 0 1.837l2.588 2.448c0.312 0.295 0.453 0.729 0.374 1.151l-0.655 3.501c-0.134 0.714 0.361 1.394 1.081 1.487l3.533 0.457c0.427 0.055 0.797 0.324 0.981 0.713l1.524 3.218c0.217 0.458 0.672 0.724 1.144 0.724 0.204 0 0.412-0.050 0.605-0.155l3.125-1.708c0.189-0.103 0.398-0.155 0.607-0.155s0.418 0.052 0.607 0.155l3.125 1.708c0.193 0.105 0.401 0.155 0.605 0.155 0.472 0 0.927-0.265 1.144-0.724l1.524-3.218c0.184-0.389 0.554-0.658 0.981-0.713l3.533-0.457c0.721-0.093 1.214-0.773 1.081-1.487l-0.655-3.501c-0.079-0.422 0.062-0.856 0.374-1.151l2.589-2.448c0.527-0.499 0.527-1.339 0-1.838l-2.588-2.448c-0.312-0.295-0.453-0.729-0.374-1.151l0.655-3.501c0.134-0.714-0.36-1.393-1.081-1.487l-3.533-0.457c-0.427-0.055-0.797-0.324-0.981-0.713l-1.524-3.218c-0.217-0.458-0.672-0.724-1.144-0.724-0.205 0-0.412 0.050-0.605 0.155l-3.125 1.708c-0.189 0.103-0.398 0.155-0.607 0.155s-0.418-0.052-0.607-0.155l-3.125-1.708c-0.193-0.105-0.401-0.155-0.605-0.155v0z"></path>
    <path d="M8.216 13.143h-0.924v5.712h0.93v-4.034l2.696 4.034h0.924v-5.712h-0.93v4.030l-2.696-4.030zM17.035 13.143h-4.196v5.712h4.322v-0.882h-3.362v-1.629h3.030v-0.878h-3.030v-1.442h3.235l0-0.882zM18.386 13.143h-0.99l1.516 5.712h0.92l1.186-4.259c0.017-0.060 0.034-0.125 0.052-0.194l0.054 0.193 1.178 4.259h0.878l1.566-5.712h-0.975l-0.881 3.609c-0.053 0.211-0.101 0.411-0.144 0.599-0.084-0.432-0.193-0.882-0.327-1.351l-0.809-2.857h-1.052l-1.067 3.785c-0.016 0.059-0.056 0.221-0.12 0.483-0.040-0.195-0.084-0.391-0.13-0.588l-0.854-3.681z"></path>
</svg>
