<!-- Generated by IcoMoon.io -->
<svg version="1.1" xmlns="http://www.w3.org/2000/svg" width="32" height="32" viewBox="0 0 32 32">
    <title>icon_story</title>
    <path d="M0.857 5.817c0-0.883 0.675-1.597 1.507-1.597h12.13c0.4 0 0.783 0.168 1.065 0.468s0.441 0.706 0.441 1.129-0.159 0.83-0.441 1.129c-0.282 0.3-0.666 0.468-1.065 0.468h-12.13c-0.4 0-0.783-0.168-1.065-0.468s-0.441-0.706-0.441-1.129z"></path>
    <path d="M0.857 16c0-0.883 0.675-1.597 1.507-1.597h27.273c0.4 0 0.783 0.168 1.065 0.468s0.441 0.706 0.441 1.129c0 0.424-0.159 0.83-0.441 1.129s-0.666 0.468-1.065 0.468h-27.273c-0.4 0-0.783-0.168-1.065-0.468s-0.441-0.706-0.441-1.129z"></path>
    <path d="M2.364 24.586c-0.4 0-0.783 0.168-1.065 0.468s-0.441 0.706-0.441 1.129 0.159 0.83 0.441 1.129c0.283 0.3 0.666 0.468 1.065 0.468h18.187c0.4 0 0.783-0.168 1.065-0.468s0.441-0.706 0.441-1.129-0.159-0.83-0.441-1.129c-0.282-0.3-0.666-0.468-1.065-0.468h-18.187z"></path>
</svg>
